<?xml version="1.0" encoding="utf-8" ?>
<svg xmlns="http://www.w3.org/2000/svg" xmlns:xlink="http://www.w3.org/1999/xlink" width="1440" height="1440">
	<clipPath id="cl_3">
		<rect width="1440" height="1440"/>
	</clipPath>
	<g clip-path="url(#cl_3)">
		<path fill="white" transform="matrix(1 0 0 -1 720 720)" d="M-720 -720L720 -720L720 720L-720 720L-720 -720Z"/>
		<path fill="white" transform="matrix(1 0 0 -1 720 720)" d="M-392.21 421C-53.11 606.22 297.8 492.72 386.36 296C472.65 104.34 315.82 -179.45 97.07 -286.14C-91.14 -377.94 -371.6 -361.27 -429.72 -230.78C-493.57 -87.4 -287.47 190.09 -140.43 174.57C77.16 151.6 69.16 -502.91 282.78 -527.22C469.29 -548.44 703.16 -75.48 629.21 -7.58002C529.6 83.88 -41.01 -639.85 -424.36 -475.44C-634.34 -385.38 -744.76 -47.47 -649.36 79.92C-536.08 231.18 -190.26 8.66998 200.64 185.28C444.99 295.68 484.46 510.92 559.57 487.07C730.09 432.91 603.1 -634.36 461.36 -639.72C303.38 -645.69 213.82 670.73 34.57 667.43C-115.98 664.65 -40.05 -616.9 -251.14 -645.07C-404.96 -665.6 -748.61 -28.98 -527.93 297.79C-498.15 341.88 -455.06 384.83 -392.21 421Z"/>
		<path fill="none" stroke="black" stroke-width="1" stroke-miterlimit="10" transform="matrix(1 0 0 -1 720 720)" d="M-392.21 421C-53.11 606.22 297.8 492.72 386.36 296C472.65 104.34 315.82 -179.45 97.07 -286.14C-91.14 -377.94 -371.6 -361.27 -429.72 -230.78C-493.57 -87.4 -287.47 190.09 -140.43 174.57C77.16 151.6 69.16 -502.91 282.78 -527.22C469.29 -548.44 703.16 -75.48 629.21 -7.58002C529.6 83.88 -41.01 -639.85 -424.36 -475.44C-634.34 -385.38 -744.76 -47.47 -649.36 79.92C-536.08 231.18 -190.26 8.66998 200.64 185.28C444.99 295.68 484.46 510.92 559.57 487.07C730.09 432.91 603.1 -634.36 461.36 -639.72C303.38 -645.69 213.82 670.73 34.57 667.43C-115.98 664.65 -40.05 -616.9 -251.14 -645.07C-404.96 -665.6 -748.61 -28.98 -527.93 297.79C-498.15 341.88 -455.06 384.83 -392.21 421Z"/>
	</g>
</svg>
